<mxfile host="app.diagrams.net" modified="2023-02-17T06:43:11.592Z" agent="5.0 (Windows NT 10.0; Win64; x64) AppleWebKit/537.36 (KHTML, like Gecko) Chrome/110.0.0.0 Safari/537.36" etag="7wCY_1EMUbLwGWF4GNYi" version="20.8.14" type="github">
  <diagram id="prtHgNgQTEPvFCAcTncT" name="Page-1">
    <mxGraphModel dx="918" dy="393" grid="0" gridSize="10" guides="0" tooltips="1" connect="1" arrows="1" fold="1" page="1" pageScale="1" pageWidth="827" pageHeight="1169" math="0" shadow="0">
      <root>
        <mxCell id="0" />
        <mxCell id="1" parent="0" />
        <mxCell id="dNxyNK7c78bLwvsdeMH5-19" value="Quy trình 2&lt;br&gt;" style="swimlane;html=1;childLayout=stackLayout;resizeParent=1;resizeParentMax=0;horizontal=0;startSize=20;horizontalStack=0;" parent="1" vertex="1">
          <mxGeometry x="120" y="120" width="640" height="330" as="geometry" />
        </mxCell>
        <mxCell id="dNxyNK7c78bLwvsdeMH5-20" value="Bán hàng" style="swimlane;html=1;startSize=20;horizontal=0;" parent="dNxyNK7c78bLwvsdeMH5-19" vertex="1">
          <mxGeometry x="20" width="620" height="120" as="geometry" />
        </mxCell>
        <mxCell id="dNxyNK7c78bLwvsdeMH5-25" value="" style="edgeStyle=orthogonalEdgeStyle;rounded=0;orthogonalLoop=1;jettySize=auto;html=1;" parent="dNxyNK7c78bLwvsdeMH5-20" source="dNxyNK7c78bLwvsdeMH5-23" edge="1">
          <mxGeometry relative="1" as="geometry">
            <mxPoint x="120" y="60" as="targetPoint" />
          </mxGeometry>
        </mxCell>
        <mxCell id="dNxyNK7c78bLwvsdeMH5-23" value="" style="ellipse;whiteSpace=wrap;html=1;" parent="dNxyNK7c78bLwvsdeMH5-20" vertex="1">
          <mxGeometry x="40" y="40" width="40" height="40" as="geometry" />
        </mxCell>
        <mxCell id="YDo4pZuq_xlKPhbBZhEq-9" style="edgeStyle=orthogonalEdgeStyle;rounded=0;orthogonalLoop=1;jettySize=auto;html=1;" edge="1" parent="dNxyNK7c78bLwvsdeMH5-20" source="YDo4pZuq_xlKPhbBZhEq-1" target="YDo4pZuq_xlKPhbBZhEq-2">
          <mxGeometry relative="1" as="geometry" />
        </mxCell>
        <mxCell id="YDo4pZuq_xlKPhbBZhEq-1" value="Báo giá" style="rounded=1;whiteSpace=wrap;html=1;" vertex="1" parent="dNxyNK7c78bLwvsdeMH5-20">
          <mxGeometry x="120" y="35" width="80" height="45" as="geometry" />
        </mxCell>
        <mxCell id="YDo4pZuq_xlKPhbBZhEq-10" style="edgeStyle=orthogonalEdgeStyle;rounded=0;orthogonalLoop=1;jettySize=auto;html=1;entryX=0;entryY=0.5;entryDx=0;entryDy=0;" edge="1" parent="dNxyNK7c78bLwvsdeMH5-20" source="YDo4pZuq_xlKPhbBZhEq-2" target="YDo4pZuq_xlKPhbBZhEq-4">
          <mxGeometry relative="1" as="geometry" />
        </mxCell>
        <mxCell id="YDo4pZuq_xlKPhbBZhEq-2" value="Danh mục trúng thầu" style="rounded=1;whiteSpace=wrap;html=1;" vertex="1" parent="dNxyNK7c78bLwvsdeMH5-20">
          <mxGeometry x="220" y="35" width="120" height="45" as="geometry" />
        </mxCell>
        <mxCell id="YDo4pZuq_xlKPhbBZhEq-3" value="Lệnh xuất kho" style="rounded=1;whiteSpace=wrap;html=1;" vertex="1" parent="dNxyNK7c78bLwvsdeMH5-20">
          <mxGeometry x="490" y="35" width="80" height="45" as="geometry" />
        </mxCell>
        <mxCell id="YDo4pZuq_xlKPhbBZhEq-11" style="edgeStyle=orthogonalEdgeStyle;rounded=0;orthogonalLoop=1;jettySize=auto;html=1;" edge="1" parent="dNxyNK7c78bLwvsdeMH5-20" source="YDo4pZuq_xlKPhbBZhEq-4" target="YDo4pZuq_xlKPhbBZhEq-3">
          <mxGeometry relative="1" as="geometry" />
        </mxCell>
        <mxCell id="YDo4pZuq_xlKPhbBZhEq-4" value="Đơn hàng" style="rounded=1;whiteSpace=wrap;html=1;" vertex="1" parent="dNxyNK7c78bLwvsdeMH5-20">
          <mxGeometry x="380" y="35" width="80" height="45" as="geometry" />
        </mxCell>
        <mxCell id="dNxyNK7c78bLwvsdeMH5-21" value="Kho" style="swimlane;html=1;startSize=20;horizontal=0;" parent="dNxyNK7c78bLwvsdeMH5-19" vertex="1">
          <mxGeometry x="20" y="120" width="620" height="120" as="geometry" />
        </mxCell>
        <mxCell id="YDo4pZuq_xlKPhbBZhEq-14" style="edgeStyle=orthogonalEdgeStyle;rounded=0;orthogonalLoop=1;jettySize=auto;html=1;" edge="1" parent="dNxyNK7c78bLwvsdeMH5-21" source="YDo4pZuq_xlKPhbBZhEq-5" target="YDo4pZuq_xlKPhbBZhEq-6">
          <mxGeometry relative="1" as="geometry" />
        </mxCell>
        <mxCell id="YDo4pZuq_xlKPhbBZhEq-5" value="Phiếu xuất bán" style="rounded=1;whiteSpace=wrap;html=1;" vertex="1" parent="dNxyNK7c78bLwvsdeMH5-21">
          <mxGeometry x="485" y="40" width="90" height="45" as="geometry" />
        </mxCell>
        <mxCell id="YDo4pZuq_xlKPhbBZhEq-6" value="Phiếu giao hàng" style="rounded=1;whiteSpace=wrap;html=1;" vertex="1" parent="dNxyNK7c78bLwvsdeMH5-21">
          <mxGeometry x="274" y="40" width="90" height="45" as="geometry" />
        </mxCell>
        <mxCell id="dNxyNK7c78bLwvsdeMH5-22" value="Kế toán" style="swimlane;html=1;startSize=20;horizontal=0;" parent="dNxyNK7c78bLwvsdeMH5-19" vertex="1">
          <mxGeometry x="20" y="240" width="620" height="90" as="geometry" />
        </mxCell>
        <mxCell id="YDo4pZuq_xlKPhbBZhEq-15" style="edgeStyle=orthogonalEdgeStyle;rounded=0;orthogonalLoop=1;jettySize=auto;html=1;entryX=0;entryY=0.5;entryDx=0;entryDy=0;" edge="1" parent="dNxyNK7c78bLwvsdeMH5-22" source="YDo4pZuq_xlKPhbBZhEq-7" target="YDo4pZuq_xlKPhbBZhEq-8">
          <mxGeometry relative="1" as="geometry" />
        </mxCell>
        <mxCell id="YDo4pZuq_xlKPhbBZhEq-7" value="Hóa đơn bán hàng" style="rounded=1;whiteSpace=wrap;html=1;" vertex="1" parent="dNxyNK7c78bLwvsdeMH5-22">
          <mxGeometry x="365" y="30" width="110" height="45" as="geometry" />
        </mxCell>
        <mxCell id="YDo4pZuq_xlKPhbBZhEq-8" value="" style="ellipse;whiteSpace=wrap;html=1;" vertex="1" parent="dNxyNK7c78bLwvsdeMH5-22">
          <mxGeometry x="515" y="32.5" width="40" height="40" as="geometry" />
        </mxCell>
        <mxCell id="YDo4pZuq_xlKPhbBZhEq-12" style="edgeStyle=orthogonalEdgeStyle;rounded=0;orthogonalLoop=1;jettySize=auto;html=1;" edge="1" parent="dNxyNK7c78bLwvsdeMH5-19" source="YDo4pZuq_xlKPhbBZhEq-4" target="YDo4pZuq_xlKPhbBZhEq-7">
          <mxGeometry relative="1" as="geometry" />
        </mxCell>
        <mxCell id="YDo4pZuq_xlKPhbBZhEq-13" style="edgeStyle=orthogonalEdgeStyle;rounded=0;orthogonalLoop=1;jettySize=auto;html=1;" edge="1" parent="dNxyNK7c78bLwvsdeMH5-19" source="YDo4pZuq_xlKPhbBZhEq-3" target="YDo4pZuq_xlKPhbBZhEq-5">
          <mxGeometry relative="1" as="geometry" />
        </mxCell>
      </root>
    </mxGraphModel>
  </diagram>
</mxfile>
